<?xml version="1.0" encoding="utf-8"?>
<svg version="1.1" xmlns="http://www.w3.org/2000/svg" xmlns:xlink="http://www.w3.org/1999/xlink" x="0px" y="0px"
	 viewBox="0 0 256 256" style="enable-background:new 0 0 256 256;" xml:space="preserve">
<g>
	<polygon fill="#fcf6f6" points="122.14,37.91 106.3,14.87 19.94,65.73 19.94,76.39 73.6,141.96 	"/>
	<polygon fill="#fcf6f6" points="136.61,6.91 128.22,1.97 109.52,12.98 123.97,34.01 	"/>
	<polygon fill="#fcf6f6" points="160.11,86.67 187.38,36.71 139.7,8.72 126.31,37.44 	"/>
	<polygon fill="#fcf6f6" points="190.47,38.52 162.4,90.01 217.37,170.05 236.06,135.2 236.06,65.3 	"/>
	<polygon fill="#fcf6f6" points="160.45,93.6 109.92,186.33 153.39,239.44 192.24,216.94 215.47,173.6 	"/>
	<polygon fill="#fcf6f6" points="198.29,213.43 230.16,194.96 217.8,177 	"/>
	<polygon fill="#fcf6f6" points="219.71,173.46 233.24,193.18 236.06,191.55 236.06,142.9 219.71,173.44 	"/>
	<polygon fill="#fcf6f6" points="74.46,148.79 47.34,207.04 83.08,227.8 105.52,186.69 	"/>
	<polygon fill="#fcf6f6" points="19.94,82.26 19.94,191.12 44.12,205.16 71.89,145.65 	"/>
	<polygon fill="#fcf6f6" points="86.3,229.68 128.22,254.03 150.26,241.27 108.05,189.77 	"/>
	<polygon fill="#fcf6f6" points="76.18,145.11 107.4,183.25 158.15,90.26 124.51,41.34 	"/>
	<polygon fill="#fcf6f6" points="217.8,177 219.71,173.46 219.71,173.44 217.37,170.05 215.47,173.6 	"/>
	<polygon fill="#fcf6f6" points="158.15,90.26 160.45,93.6 162.4,90.01 160.11,86.67 	"/>
	<polygon fill="#fcf6f6" points="126.31,37.44 123.97,34.01 122.14,37.91 124.51,41.34 	"/>
	<polygon fill="#fcf6f6" points="73.6,141.96 71.89,145.65 74.46,148.79 76.18,145.11 	"/>
	<polygon fill="#fcf6f6" points="105.52,186.69 108.05,189.77 109.92,186.33 107.4,183.25 	"/>
</g>
</svg>
